<mxfile modified="2024-04-10T16:29:34.278Z" host="app.diagrams.net" agent="Mozilla/5.0 (Macintosh; Intel Mac OS X 10_15_7) AppleWebKit/605.1.15 (KHTML, like Gecko) Version/17.4.1 Safari/605.1.15" etag="9-aFHojRMDMFhUiDhU94" version="24.2.3" type="device">
  <diagram id="Ht1M8jgEwFfnCIfOTk4-" name="Page-1">
    <mxGraphModel dx="1108" dy="1449" grid="1" gridSize="10" guides="1" tooltips="1" connect="1" arrows="1" fold="1" page="1" pageScale="1" pageWidth="1169" pageHeight="827" math="0" shadow="0">
      <root>
        <mxCell id="0" />
        <mxCell id="1" parent="0" />
        <mxCell id="UEzPUAAOIrF-is8g5C7q-175" value="AWS Cloud" style="points=[[0,0],[0.25,0],[0.5,0],[0.75,0],[1,0],[1,0.25],[1,0.5],[1,0.75],[1,1],[0.75,1],[0.5,1],[0.25,1],[0,1],[0,0.75],[0,0.5],[0,0.25]];outlineConnect=0;gradientColor=none;html=1;whiteSpace=wrap;fontSize=12;fontStyle=0;shape=mxgraph.aws4.group;grIcon=mxgraph.aws4.group_aws_cloud_alt;strokeColor=#232F3E;fillColor=none;verticalAlign=top;align=left;spacingLeft=30;fontColor=#232F3E;dashed=0;labelBackgroundColor=#ffffff;container=1;pointerEvents=0;collapsible=0;recursiveResize=0;" parent="1" vertex="1">
          <mxGeometry x="40" y="-789.5" width="1040" height="849.5" as="geometry" />
        </mxCell>
        <mxCell id="vVi4Yc5sUVfjphDerw9W-19" value="" style="edgeStyle=orthogonalEdgeStyle;rounded=0;orthogonalLoop=1;jettySize=auto;html=1;" edge="1" parent="UEzPUAAOIrF-is8g5C7q-175" source="UEzPUAAOIrF-is8g5C7q-177" target="vVi4Yc5sUVfjphDerw9W-4">
          <mxGeometry relative="1" as="geometry" />
        </mxCell>
        <mxCell id="UEzPUAAOIrF-is8g5C7q-177" value="S3&lt;br&gt;Bucket&lt;div&gt;archivos:&lt;/div&gt;&lt;div&gt;index.html&lt;/div&gt;&lt;div&gt;styles.css&lt;/div&gt;&lt;div&gt;scripts.js&lt;/div&gt;" style="outlineConnect=0;fontColor=#232F3E;gradientColor=none;fillColor=#277116;strokeColor=none;dashed=0;verticalLabelPosition=bottom;verticalAlign=top;align=center;html=1;fontSize=12;fontStyle=0;aspect=fixed;pointerEvents=1;shape=mxgraph.aws4.bucket;labelBackgroundColor=#ffffff;" parent="UEzPUAAOIrF-is8g5C7q-175" vertex="1">
          <mxGeometry x="300" y="210.75" width="75" height="78" as="geometry" />
        </mxCell>
        <mxCell id="vVi4Yc5sUVfjphDerw9W-17" style="edgeStyle=orthogonalEdgeStyle;rounded=0;orthogonalLoop=1;jettySize=auto;html=1;" edge="1" parent="UEzPUAAOIrF-is8g5C7q-175" source="vVi4Yc5sUVfjphDerw9W-1" target="vVi4Yc5sUVfjphDerw9W-3">
          <mxGeometry relative="1" as="geometry" />
        </mxCell>
        <mxCell id="vVi4Yc5sUVfjphDerw9W-1" value="User" style="sketch=0;outlineConnect=0;fontColor=#232F3E;gradientColor=none;fillColor=#232F3D;strokeColor=none;dashed=0;verticalLabelPosition=bottom;verticalAlign=top;align=center;html=1;fontSize=12;fontStyle=0;aspect=fixed;pointerEvents=1;shape=mxgraph.aws4.user;" vertex="1" parent="UEzPUAAOIrF-is8g5C7q-175">
          <mxGeometry x="20" y="211.38" width="78" height="78" as="geometry" />
        </mxCell>
        <mxCell id="vVi4Yc5sUVfjphDerw9W-18" value="" style="edgeStyle=orthogonalEdgeStyle;rounded=0;orthogonalLoop=1;jettySize=auto;html=1;" edge="1" parent="UEzPUAAOIrF-is8g5C7q-175" source="vVi4Yc5sUVfjphDerw9W-3" target="UEzPUAAOIrF-is8g5C7q-177">
          <mxGeometry relative="1" as="geometry" />
        </mxCell>
        <mxCell id="vVi4Yc5sUVfjphDerw9W-3" value="IAM&lt;div&gt;Rol Acces Public&lt;/div&gt;" style="sketch=0;outlineConnect=0;fontColor=#232F3E;gradientColor=none;fillColor=#DD344C;strokeColor=none;dashed=0;verticalLabelPosition=bottom;verticalAlign=top;align=center;html=1;fontSize=12;fontStyle=0;aspect=fixed;pointerEvents=1;shape=mxgraph.aws4.data_encryption_key;" vertex="1" parent="UEzPUAAOIrF-is8g5C7q-175">
          <mxGeometry x="160" y="211.38" width="62" height="78" as="geometry" />
        </mxCell>
        <mxCell id="vVi4Yc5sUVfjphDerw9W-9" value="" style="edgeStyle=orthogonalEdgeStyle;rounded=0;orthogonalLoop=1;jettySize=auto;html=1;entryX=0;entryY=0.5;entryDx=0;entryDy=0;entryPerimeter=0;exitX=0.5;exitY=0;exitDx=0;exitDy=0;exitPerimeter=0;" edge="1" parent="UEzPUAAOIrF-is8g5C7q-175" source="vVi4Yc5sUVfjphDerw9W-4" target="vVi4Yc5sUVfjphDerw9W-5">
          <mxGeometry relative="1" as="geometry">
            <mxPoint x="499" y="120.5" as="targetPoint" />
          </mxGeometry>
        </mxCell>
        <mxCell id="vVi4Yc5sUVfjphDerw9W-10" value="POST REQUEST" style="edgeLabel;html=1;align=center;verticalAlign=middle;resizable=0;points=[];" vertex="1" connectable="0" parent="vVi4Yc5sUVfjphDerw9W-9">
          <mxGeometry x="-0.0118" y="1" relative="1" as="geometry">
            <mxPoint as="offset" />
          </mxGeometry>
        </mxCell>
        <mxCell id="vVi4Yc5sUVfjphDerw9W-4" value="API&lt;div&gt;Gateway&lt;/div&gt;" style="sketch=0;points=[[0,0,0],[0.25,0,0],[0.5,0,0],[0.75,0,0],[1,0,0],[0,1,0],[0.25,1,0],[0.5,1,0],[0.75,1,0],[1,1,0],[0,0.25,0],[0,0.5,0],[0,0.75,0],[1,0.25,0],[1,0.5,0],[1,0.75,0]];outlineConnect=0;fontColor=#232F3E;fillColor=#8C4FFF;strokeColor=#ffffff;dashed=0;verticalLabelPosition=bottom;verticalAlign=top;align=center;html=1;fontSize=12;fontStyle=0;aspect=fixed;shape=mxgraph.aws4.resourceIcon;resIcon=mxgraph.aws4.api_gateway;" vertex="1" parent="UEzPUAAOIrF-is8g5C7q-175">
          <mxGeometry x="460" y="211.38" width="78" height="78" as="geometry" />
        </mxCell>
        <mxCell id="vVi4Yc5sUVfjphDerw9W-11" value="" style="edgeStyle=orthogonalEdgeStyle;rounded=0;orthogonalLoop=1;jettySize=auto;html=1;entryX=0.5;entryY=0;entryDx=0;entryDy=0;entryPerimeter=0;" edge="1" parent="UEzPUAAOIrF-is8g5C7q-175" source="vVi4Yc5sUVfjphDerw9W-5" target="vVi4Yc5sUVfjphDerw9W-7">
          <mxGeometry relative="1" as="geometry" />
        </mxCell>
        <mxCell id="vVi4Yc5sUVfjphDerw9W-12" value="INSERT MESSAGE" style="edgeLabel;html=1;align=center;verticalAlign=middle;resizable=0;points=[];" vertex="1" connectable="0" parent="vVi4Yc5sUVfjphDerw9W-11">
          <mxGeometry x="-0.0118" y="2" relative="1" as="geometry">
            <mxPoint as="offset" />
          </mxGeometry>
        </mxCell>
        <mxCell id="vVi4Yc5sUVfjphDerw9W-5" value="Lambda" style="sketch=0;points=[[0,0,0],[0.25,0,0],[0.5,0,0],[0.75,0,0],[1,0,0],[0,1,0],[0.25,1,0],[0.5,1,0],[0.75,1,0],[1,1,0],[0,0.25,0],[0,0.5,0],[0,0.75,0],[1,0.25,0],[1,0.5,0],[1,0.75,0]];outlineConnect=0;fontColor=#232F3E;fillColor=#ED7100;strokeColor=#ffffff;dashed=0;verticalLabelPosition=bottom;verticalAlign=top;align=center;html=1;fontSize=12;fontStyle=0;aspect=fixed;shape=mxgraph.aws4.resourceIcon;resIcon=mxgraph.aws4.lambda;" vertex="1" parent="UEzPUAAOIrF-is8g5C7q-175">
          <mxGeometry x="650" y="109.5" width="78" height="78" as="geometry" />
        </mxCell>
        <mxCell id="vVi4Yc5sUVfjphDerw9W-15" style="edgeStyle=orthogonalEdgeStyle;rounded=0;orthogonalLoop=1;jettySize=auto;html=1;entryX=0.5;entryY=1;entryDx=0;entryDy=0;entryPerimeter=0;" edge="1" parent="UEzPUAAOIrF-is8g5C7q-175" source="vVi4Yc5sUVfjphDerw9W-6" target="vVi4Yc5sUVfjphDerw9W-4">
          <mxGeometry relative="1" as="geometry" />
        </mxCell>
        <mxCell id="vVi4Yc5sUVfjphDerw9W-16" value="GET REQUEST" style="edgeLabel;html=1;align=center;verticalAlign=middle;resizable=0;points=[];" vertex="1" connectable="0" parent="vVi4Yc5sUVfjphDerw9W-15">
          <mxGeometry x="0.0735" y="1" relative="1" as="geometry">
            <mxPoint as="offset" />
          </mxGeometry>
        </mxCell>
        <mxCell id="vVi4Yc5sUVfjphDerw9W-6" value="Lambda" style="sketch=0;points=[[0,0,0],[0.25,0,0],[0.5,0,0],[0.75,0,0],[1,0,0],[0,1,0],[0.25,1,0],[0.5,1,0],[0.75,1,0],[1,1,0],[0,0.25,0],[0,0.5,0],[0,0.75,0],[1,0.25,0],[1,0.5,0],[1,0.75,0]];outlineConnect=0;fontColor=#232F3E;fillColor=#ED7100;strokeColor=#ffffff;dashed=0;verticalLabelPosition=bottom;verticalAlign=top;align=center;html=1;fontSize=12;fontStyle=0;aspect=fixed;shape=mxgraph.aws4.resourceIcon;resIcon=mxgraph.aws4.lambda;" vertex="1" parent="UEzPUAAOIrF-is8g5C7q-175">
          <mxGeometry x="650" y="309.5" width="78" height="78" as="geometry" />
        </mxCell>
        <mxCell id="vVi4Yc5sUVfjphDerw9W-13" style="edgeStyle=orthogonalEdgeStyle;rounded=0;orthogonalLoop=1;jettySize=auto;html=1;exitX=0.5;exitY=1;exitDx=0;exitDy=0;exitPerimeter=0;entryX=1;entryY=0.5;entryDx=0;entryDy=0;entryPerimeter=0;" edge="1" parent="UEzPUAAOIrF-is8g5C7q-175" source="vVi4Yc5sUVfjphDerw9W-7" target="vVi4Yc5sUVfjphDerw9W-6">
          <mxGeometry relative="1" as="geometry" />
        </mxCell>
        <mxCell id="vVi4Yc5sUVfjphDerw9W-14" value="GET MESSAGES" style="edgeLabel;html=1;align=center;verticalAlign=middle;resizable=0;points=[];" vertex="1" connectable="0" parent="vVi4Yc5sUVfjphDerw9W-13">
          <mxGeometry x="0.0701" relative="1" as="geometry">
            <mxPoint as="offset" />
          </mxGeometry>
        </mxCell>
        <mxCell id="vVi4Yc5sUVfjphDerw9W-7" value="DynamoDB" style="sketch=0;points=[[0,0,0],[0.25,0,0],[0.5,0,0],[0.75,0,0],[1,0,0],[0,1,0],[0.25,1,0],[0.5,1,0],[0.75,1,0],[1,1,0],[0,0.25,0],[0,0.5,0],[0,0.75,0],[1,0.25,0],[1,0.5,0],[1,0.75,0]];outlineConnect=0;fontColor=#232F3E;fillColor=#007FFF;strokeColor=#ffffff;dashed=0;verticalLabelPosition=bottom;verticalAlign=top;align=center;html=1;fontSize=12;fontStyle=0;aspect=fixed;shape=mxgraph.aws4.resourceIcon;resIcon=mxgraph.aws4.dynamodb;" vertex="1" parent="UEzPUAAOIrF-is8g5C7q-175">
          <mxGeometry x="850" y="211.38" width="78" height="78" as="geometry" />
        </mxCell>
      </root>
    </mxGraphModel>
  </diagram>
</mxfile>
